 <svg  version="1.0" xmlns="http://www.w3.org/2000/svg"  width="300.000000pt" height="300.000000pt" viewBox="0 0 300.000000 300.000000"  preserveAspectRatio="xMidYMid meet">  <g transform="translate(0.000000,300.000000) scale(0.100000,-0.100000)" fill="#540000" stroke="none"> <path d="M1275 2985 c-318 -46 -600 -189 -835 -425 -291 -290 -440 -650 -440 -1060 0 -410 149 -770 440 -1060 290 -291 650 -440 1060 -440 410 0 770 149 1060 440 291 290 440 650 440 1060 0 410 -149 770 -440 1060 -241 242 -540 390 -865 429 -117 14 -306 12 -420 -4z m723 -611 c181 -51 325 -195 376 -376 24 -84 24 -912 0 -996 -51 -181 -195 -325 -376 -376 -84 -24 -912 -24 -996 0 -132 38 -265 141 -326 253 -64 119 -65 130 -66 613 0 484 2 507 63 622 37 70 126 163 193 202 27 16 78 39 114 51 63 21 80 22 513 22 384 1 457 -1 505 -15z"/> <path d="M1080 2210 c-123 -22 -228 -108 -271 -221 l-24 -64 0 -425 0 -425 24 -64 c34 -89 113 -168 202 -202 l64 -24 425 0 425 0 64 24 c89 34 168 113 202 202 l24 64 0 425 0 425 -24 64 c-33 85 -112 166 -196 201 -60 24 -62 24 -465 26 -223 1 -425 -1 -450 -6z m939 -155 c35 -18 65 -77 56 -112 -10 -43 -68 -93 -106 -93 -43 0 -97 33 -104 62 -13 59 -12 78 6 107 30 50 93 65 148 36z m-414 -107 c120 -25 243 -120 302 -233 145 -279 -18 -609 -329 -668 -246 -46 -483 122 -531 376 -13 67 -13 87 0 155 18 96 62 182 128 247 77 77 154 112 300 138 23 4 58 0 130 -15z"/> <path d="M1414 1770 c-61 -19 -126 -73 -158 -130 -28 -50 -31 -63 -31 -140 0 -68 5 -93 22 -126 31 -59 79 -103 142 -132 45 -21 64 -24 125 -20 155 10 254 109 264 264 4 61 1 80 -20 125 -48 106 -129 160 -243 165 -38 2 -84 -1 -101 -6z"/> </g> </svg> 